<svg height="4350" width="720" xmlns="http://www.w3.org/2000/svg">
<rect height="4350" fill="#555" width="720"></rect>
<text fill="#7f7" font-family="Courier New" font-size="12" xml:space="preserve">
<tspan x="10" y="26">40 megabytes installed</tspan>
<tspan x="10" y="42"></tspan>
<tspan x="10" y="58">node_modules</tspan>
<tspan x="10" y="74">└─┬ mjml@3.3.0 </tspan>
<tspan x="10" y="90">  ├── lodash@4.17.4 </tspan>
<tspan x="10" y="106">  ├─┬ mjml-accordion@3.3.0 </tspan>
<tspan x="10" y="122">  │ ├── classnames@2.2.5 </tspan>
<tspan x="10" y="138">  │ └─┬ react@15.4.2 </tspan>
<tspan x="10" y="154">  │   ├─┬ fbjs@0.8.12 </tspan>
<tspan x="10" y="170">  │   │ ├── core-js@1.2.7 </tspan>
<tspan x="10" y="186">  │   │ ├─┬ isomorphic-fetch@2.2.1 </tspan>
<tspan x="10" y="202">  │   │ │ ├─┬ node-fetch@1.6.3 </tspan>
<tspan x="10" y="218">  │   │ │ │ ├─┬ encoding@0.1.12 </tspan>
<tspan x="10" y="234">  │   │ │ │ │ └── iconv-lite@0.4.15 </tspan>
<tspan x="10" y="250">  │   │ │ │ └── is-stream@1.1.0 </tspan>
<tspan x="10" y="266">  │   │ │ └── whatwg-fetch@2.0.3 </tspan>
<tspan x="10" y="282">  │   │ ├─┬ promise@7.1.1 </tspan>
<tspan x="10" y="298">  │   │ │ └── asap@2.0.5 </tspan>
<tspan x="10" y="314">  │   │ ├── setimmediate@1.0.5 </tspan>
<tspan x="10" y="330">  │   │ └── ua-parser-js@0.7.12 </tspan>
<tspan x="10" y="346">  │   ├─┬ loose-envify@1.3.1 </tspan>
<tspan x="10" y="362">  │   │ └── js-tokens@3.0.1 </tspan>
<tspan x="10" y="378">  │   └── object-assign@4.1.1 </tspan>
<tspan x="10" y="394">  ├── mjml-button@3.3.0 </tspan>
<tspan x="10" y="410">  ├── mjml-carousel@3.3.0 </tspan>
<tspan x="10" y="426">  ├─┬ mjml-cli@3.3.0 </tspan>
<tspan x="10" y="442">  │ ├─┬ chokidar@1.6.1 </tspan>
<tspan x="10" y="458">  │ │ ├─┬ anymatch@1.3.0 </tspan>
<tspan x="10" y="474">  │ │ │ ├── arrify@1.0.1 </tspan>
<tspan x="10" y="490">  │ │ │ └─┬ micromatch@2.3.11 </tspan>
<tspan x="10" y="506">  │ │ │   ├─┬ arr-diff@2.0.0 </tspan>
<tspan x="10" y="522">  │ │ │   │ └── arr-flatten@1.0.1 </tspan>
<tspan x="10" y="538">  │ │ │   ├── array-unique@0.2.1 </tspan>
<tspan x="10" y="554">  │ │ │   ├─┬ braces@1.8.5 </tspan>
<tspan x="10" y="570">  │ │ │   │ ├─┬ expand-range@1.8.2 </tspan>
<tspan x="10" y="586">  │ │ │   │ │ └─┬ fill-range@2.2.3 </tspan>
<tspan x="10" y="602">  │ │ │   │ │   ├── is-number@2.1.0 </tspan>
<tspan x="10" y="618">  │ │ │   │ │   ├── isobject@2.1.0 </tspan>
<tspan x="10" y="634">  │ │ │   │ │   ├── randomatic@1.1.6 </tspan>
<tspan x="10" y="650">  │ │ │   │ │   └── repeat-string@1.6.1 </tspan>
<tspan x="10" y="666">  │ │ │   │ ├── preserve@0.2.0 </tspan>
<tspan x="10" y="682">  │ │ │   │ └── repeat-element@1.1.2 </tspan>
<tspan x="10" y="698">  │ │ │   ├─┬ expand-brackets@0.1.5 </tspan>
<tspan x="10" y="714">  │ │ │   │ └── is-posix-bracket@0.1.1 </tspan>
<tspan x="10" y="730">  │ │ │   ├── extglob@0.3.2 </tspan>
<tspan x="10" y="746">  │ │ │   ├── filename-regex@2.0.0 </tspan>
<tspan x="10" y="762">  │ │ │   ├─┬ kind-of@3.1.0 </tspan>
<tspan x="10" y="778">  │ │ │   │ └── is-buffer@1.1.5 </tspan>
<tspan x="10" y="794">  │ │ │   ├─┬ normalize-path@2.1.1 </tspan>
<tspan x="10" y="810">  │ │ │   │ └── remove-trailing-separator@1.0.1 </tspan>
<tspan x="10" y="826">  │ │ │   ├─┬ object.omit@2.0.1 </tspan>
<tspan x="10" y="842">  │ │ │   │ ├─┬ for-own@0.1.5 </tspan>
<tspan x="10" y="858">  │ │ │   │ │ └── for-in@1.0.2 </tspan>
<tspan x="10" y="874">  │ │ │   │ └── is-extendable@0.1.1 </tspan>
<tspan x="10" y="890">  │ │ │   ├─┬ parse-glob@3.0.4 </tspan>
<tspan x="10" y="906">  │ │ │   │ ├── glob-base@0.3.0 </tspan>
<tspan x="10" y="922">  │ │ │   │ └── is-dotfile@1.0.2 </tspan>
<tspan x="10" y="938">  │ │ │   └─┬ regex-cache@0.4.3 </tspan>
<tspan x="10" y="954">  │ │ │     ├── is-equal-shallow@0.1.3 </tspan>
<tspan x="10" y="970">  │ │ │     └── is-primitive@2.0.0 </tspan>
<tspan x="10" y="986">  │ │ ├── async-each@1.0.1 </tspan>
<tspan x="10" y="1002">  │ │ ├── glob-parent@2.0.0 </tspan>
<tspan x="10" y="1018">  │ │ ├── inherits@2.0.3 </tspan>
<tspan x="10" y="1034">  │ │ ├─┬ is-binary-path@1.0.1 </tspan>
<tspan x="10" y="1050">  │ │ │ └── binary-extensions@1.8.0 </tspan>
<tspan x="10" y="1066">  │ │ ├─┬ is-glob@2.0.1 </tspan>
<tspan x="10" y="1082">  │ │ │ └── is-extglob@1.0.0 </tspan>
<tspan x="10" y="1098">  │ │ ├── path-is-absolute@1.0.1 </tspan>
<tspan x="10" y="1114">  │ │ └─┬ readdirp@2.1.0 </tspan>
<tspan x="10" y="1130">  │ │   ├── graceful-fs@4.1.11 </tspan>
<tspan x="10" y="1146">  │ │   ├─┬ readable-stream@2.2.8 </tspan>
<tspan x="10" y="1162">  │ │   │ ├── buffer-shims@1.0.0 </tspan>
<tspan x="10" y="1178">  │ │   │ ├── core-util-is@1.0.2 </tspan>
<tspan x="10" y="1194">  │ │   │ ├── isarray@1.0.0 </tspan>
<tspan x="10" y="1210">  │ │   │ ├── process-nextick-args@1.0.7 </tspan>
<tspan x="10" y="1226">  │ │   │ ├── string_decoder@1.0.0 </tspan>
<tspan x="10" y="1242">  │ │   │ └── util-deprecate@1.0.2 </tspan>
<tspan x="10" y="1258">  │ │   └── set-immediate-shim@1.0.1 </tspan>
<tspan x="10" y="1274">  │ ├─┬ commander@2.9.0 </tspan>
<tspan x="10" y="1290">  │ │ └── graceful-readlink@1.0.1 </tspan>
<tspan x="10" y="1306">  │ ├─┬ fs-promise@2.0.2 </tspan>
<tspan x="10" y="1322">  │ │ ├── any-promise@1.3.0 </tspan>
<tspan x="10" y="1338">  │ │ ├─┬ fs-extra@2.1.2 </tspan>
<tspan x="10" y="1354">  │ │ │ └── jsonfile@2.4.0 </tspan>
<tspan x="10" y="1370">  │ │ ├── mz@2.6.0 </tspan>
<tspan x="10" y="1386">  │ │ └─┬ thenify-all@1.6.0 </tspan>
<tspan x="10" y="1402">  │ │   └── thenify@3.2.1 </tspan>
<tspan x="10" y="1418">  │ └─┬ glob@7.1.1 </tspan>
<tspan x="10" y="1434">  │   ├── fs.realpath@1.0.0 </tspan>
<tspan x="10" y="1450">  │   ├─┬ inflight@1.0.6 </tspan>
<tspan x="10" y="1466">  │   │ └── wrappy@1.0.2 </tspan>
<tspan x="10" y="1482">  │   ├─┬ minimatch@3.0.3 </tspan>
<tspan x="10" y="1498">  │   │ └─┬ brace-expansion@1.1.7 </tspan>
<tspan x="10" y="1514">  │   │   ├── balanced-match@0.4.2 </tspan>
<tspan x="10" y="1530">  │   │   └── concat-map@0.0.1 </tspan>
<tspan x="10" y="1546">  │   └── once@1.4.0 </tspan>
<tspan x="10" y="1562">  ├── mjml-column@3.3.0 </tspan>
<tspan x="10" y="1578">  ├── mjml-container@3.3.0 </tspan>
<tspan x="10" y="1594">  ├─┬ mjml-core@3.3.0 </tspan>
<tspan x="10" y="1610">  │ ├─┬ cheerio@0.22.0 </tspan>
<tspan x="10" y="1626">  │ │ ├─┬ css-select@1.2.0 </tspan>
<tspan x="10" y="1642">  │ │ │ ├── boolbase@1.0.0 </tspan>
<tspan x="10" y="1658">  │ │ │ ├── css-what@2.1.0 </tspan>
<tspan x="10" y="1674">  │ │ │ ├── domutils@1.5.1 </tspan>
<tspan x="10" y="1690">  │ │ │ └── nth-check@1.0.1 </tspan>
<tspan x="10" y="1706">  │ │ ├─┬ dom-serializer@0.1.0 </tspan>
<tspan x="10" y="1722">  │ │ │ └── domelementtype@1.1.3 </tspan>
<tspan x="10" y="1738">  │ │ ├── entities@1.1.1 </tspan>
<tspan x="10" y="1754">  │ │ ├─┬ htmlparser2@3.9.2 </tspan>
<tspan x="10" y="1770">  │ │ │ ├── domelementtype@1.3.0 </tspan>
<tspan x="10" y="1786">  │ │ │ └── domhandler@2.3.0 </tspan>
<tspan x="10" y="1802">  │ │ ├── lodash.assignin@4.2.0 </tspan>
<tspan x="10" y="1818">  │ │ ├── lodash.bind@4.2.1 </tspan>
<tspan x="10" y="1834">  │ │ ├── lodash.defaults@4.2.0 </tspan>
<tspan x="10" y="1850">  │ │ ├── lodash.filter@4.6.0 </tspan>
<tspan x="10" y="1866">  │ │ ├── lodash.flatten@4.4.0 </tspan>
<tspan x="10" y="1882">  │ │ ├── lodash.foreach@4.5.0 </tspan>
<tspan x="10" y="1898">  │ │ ├── lodash.map@4.6.0 </tspan>
<tspan x="10" y="1914">  │ │ ├── lodash.merge@4.6.0 </tspan>
<tspan x="10" y="1930">  │ │ ├── lodash.pick@4.4.0 </tspan>
<tspan x="10" y="1946">  │ │ ├── lodash.reduce@4.6.0 </tspan>
<tspan x="10" y="1962">  │ │ ├── lodash.reject@4.6.0 </tspan>
<tspan x="10" y="1978">  │ │ └── lodash.some@4.6.0 </tspan>
<tspan x="10" y="1994">  │ ├─┬ debug@2.6.3 </tspan>
<tspan x="10" y="2010">  │ │ └── ms@0.7.2 </tspan>
<tspan x="10" y="2026">  │ ├── he@1.1.1 </tspan>
<tspan x="10" y="2042">  │ ├── hoist-non-react-statics@1.2.0 </tspan>
<tspan x="10" y="2058">  │ ├─┬ html-minifier@3.4.2 </tspan>
<tspan x="10" y="2074">  │ │ ├─┬ camel-case@3.0.0 </tspan>
<tspan x="10" y="2090">  │ │ │ ├─┬ no-case@2.3.1 </tspan>
<tspan x="10" y="2106">  │ │ │ │ └── lower-case@1.1.4 </tspan>
<tspan x="10" y="2122">  │ │ │ └── upper-case@1.1.3 </tspan>
<tspan x="10" y="2138">  │ │ ├─┬ clean-css@4.0.11 </tspan>
<tspan x="10" y="2154">  │ │ │ └── source-map@0.5.6 </tspan>
<tspan x="10" y="2170">  │ │ ├─┬ ncname@1.0.0 </tspan>
<tspan x="10" y="2186">  │ │ │ └── xml-char-classes@1.0.0 </tspan>
<tspan x="10" y="2202">  │ │ ├── param-case@2.1.1 </tspan>
<tspan x="10" y="2218">  │ │ ├── relateurl@0.2.7 </tspan>
<tspan x="10" y="2234">  │ │ └─┬ uglify-js@2.8.21 </tspan>
<tspan x="10" y="2250">  │ │   ├── uglify-to-browserify@1.0.2 </tspan>
<tspan x="10" y="2266">  │ │   └─┬ yargs@3.10.0 </tspan>
<tspan x="10" y="2282">  │ │     ├── camelcase@1.2.1 </tspan>
<tspan x="10" y="2298">  │ │     ├─┬ cliui@2.1.0 </tspan>
<tspan x="10" y="2314">  │ │     │ ├─┬ center-align@0.1.3 </tspan>
<tspan x="10" y="2330">  │ │     │ │ ├─┬ align-text@0.1.4 </tspan>
<tspan x="10" y="2346">  │ │     │ │ │ └── longest@1.0.1 </tspan>
<tspan x="10" y="2362">  │ │     │ │ └── lazy-cache@1.0.4 </tspan>
<tspan x="10" y="2378">  │ │     │ ├── right-align@0.1.3 </tspan>
<tspan x="10" y="2394">  │ │     │ └── wordwrap@0.0.2 </tspan>
<tspan x="10" y="2410">  │ │     ├── decamelize@1.2.0 </tspan>
<tspan x="10" y="2426">  │ │     └── window-size@0.1.0 </tspan>
<tspan x="10" y="2442">  │ ├── immutable@3.8.1 </tspan>
<tspan x="10" y="2458">  │ ├── jquery@3.2.1 </tspan>
<tspan x="10" y="2474">  │ ├─┬ js-beautify@1.6.12 </tspan>
<tspan x="10" y="2490">  │ │ ├─┬ config-chain@1.1.11 </tspan>
<tspan x="10" y="2506">  │ │ │ ├── ini@1.3.4 </tspan>
<tspan x="10" y="2522">  │ │ │ └── proto-list@1.2.4 </tspan>
<tspan x="10" y="2538">  │ │ ├─┬ editorconfig@0.13.2 </tspan>
<tspan x="10" y="2554">  │ │ │ ├── bluebird@3.5.0 </tspan>
<tspan x="10" y="2570">  │ │ │ ├─┬ lru-cache@3.2.0 </tspan>
<tspan x="10" y="2586">  │ │ │ │ └── pseudomap@1.0.2 </tspan>
<tspan x="10" y="2602">  │ │ │ └── sigmund@1.0.1 </tspan>
<tspan x="10" y="2618">  │ │ ├─┬ mkdirp@0.5.1 </tspan>
<tspan x="10" y="2634">  │ │ │ └── minimist@0.0.8 </tspan>
<tspan x="10" y="2650">  │ │ └─┬ nopt@3.0.6 </tspan>
<tspan x="10" y="2666">  │ │   └── abbrev@1.1.0 </tspan>
<tspan x="10" y="2682">  │ ├─┬ juice@4.0.2 </tspan>
<tspan x="10" y="2698">  │ │ ├─┬ cross-spawn@5.1.0 </tspan>
<tspan x="10" y="2714">  │ │ │ ├─┬ lru-cache@4.0.2 </tspan>
<tspan x="10" y="2730">  │ │ │ │ └── yallist@2.1.2 </tspan>
<tspan x="10" y="2746">  │ │ │ ├─┬ shebang-command@1.2.0 </tspan>
<tspan x="10" y="2762">  │ │ │ │ └── shebang-regex@1.0.0 </tspan>
<tspan x="10" y="2778">  │ │ │ └─┬ which@1.2.14 </tspan>
<tspan x="10" y="2794">  │ │ │   └── isexe@2.0.0 </tspan>
<tspan x="10" y="2810">  │ │ ├── deep-extend@0.4.1 </tspan>
<tspan x="10" y="2826">  │ │ ├── mensch@0.3.3 </tspan>
<tspan x="10" y="2842">  │ │ ├── slick@1.12.2 </tspan>
<tspan x="10" y="2858">  │ │ └─┬ web-resource-inliner@4.1.0 </tspan>
<tspan x="10" y="2874">  │ │   ├── async@2.3.0 </tspan>
<tspan x="10" y="2890">  │ │   ├─┬ chalk@1.1.3 </tspan>
<tspan x="10" y="2906">  │ │   │ ├── ansi-styles@2.2.1 </tspan>
<tspan x="10" y="2922">  │ │   │ ├── escape-string-regexp@1.0.5 </tspan>
<tspan x="10" y="2938">  │ │   │ ├─┬ has-ansi@2.0.0 </tspan>
<tspan x="10" y="2954">  │ │   │ │ └── ansi-regex@2.1.1 </tspan>
<tspan x="10" y="2970">  │ │   │ ├── strip-ansi@3.0.1 </tspan>
<tspan x="10" y="2986">  │ │   │ └── supports-color@2.0.0 </tspan>
<tspan x="10" y="3002">  │ │   ├─┬ datauri@1.0.5 </tspan>
<tspan x="10" y="3018">  │ │   │ ├── image-size@0.3.5 </tspan>
<tspan x="10" y="3034">  │ │   │ ├── mimer@0.2.1 </tspan>
<tspan x="10" y="3050">  │ │   │ └── semver@5.3.0 </tspan>
<tspan x="10" y="3066">  │ │   ├── lodash.unescape@4.0.1 </tspan>
<tspan x="10" y="3082">  │ │   ├─┬ request@2.81.0 </tspan>
<tspan x="10" y="3098">  │ │   │ ├── aws-sign2@0.6.0 </tspan>
<tspan x="10" y="3114">  │ │   │ ├── aws4@1.6.0 </tspan>
<tspan x="10" y="3130">  │ │   │ ├── caseless@0.12.0 </tspan>
<tspan x="10" y="3146">  │ │   │ ├─┬ combined-stream@1.0.5 </tspan>
<tspan x="10" y="3162">  │ │   │ │ └── delayed-stream@1.0.0 </tspan>
<tspan x="10" y="3178">  │ │   │ ├── extend@3.0.0 </tspan>
<tspan x="10" y="3194">  │ │   │ ├── forever-agent@0.6.1 </tspan>
<tspan x="10" y="3210">  │ │   │ ├─┬ form-data@2.1.2 </tspan>
<tspan x="10" y="3226">  │ │   │ │ └── asynckit@0.4.0 </tspan>
<tspan x="10" y="3242">  │ │   │ ├─┬ har-validator@4.2.1 </tspan>
<tspan x="10" y="3258">  │ │   │ │ ├─┬ ajv@4.11.5 </tspan>
<tspan x="10" y="3274">  │ │   │ │ │ ├── co@4.6.0 </tspan>
<tspan x="10" y="3290">  │ │   │ │ │ └─┬ json-stable-stringify@1.0.1 </tspan>
<tspan x="10" y="3306">  │ │   │ │ │   └── jsonify@0.0.0 </tspan>
<tspan x="10" y="3322">  │ │   │ │ └── har-schema@1.0.5 </tspan>
<tspan x="10" y="3338">  │ │   │ ├─┬ hawk@3.1.3 </tspan>
<tspan x="10" y="3354">  │ │   │ │ ├── boom@2.10.1 </tspan>
<tspan x="10" y="3370">  │ │   │ │ ├── cryptiles@2.0.5 </tspan>
<tspan x="10" y="3386">  │ │   │ │ ├── hoek@2.16.3 </tspan>
<tspan x="10" y="3402">  │ │   │ │ └── sntp@1.0.9 </tspan>
<tspan x="10" y="3418">  │ │   │ ├─┬ http-signature@1.1.1 </tspan>
<tspan x="10" y="3434">  │ │   │ │ ├── assert-plus@0.2.0 </tspan>
<tspan x="10" y="3450">  │ │   │ │ ├─┬ jsprim@1.4.0 </tspan>
<tspan x="10" y="3466">  │ │   │ │ │ ├── assert-plus@1.0.0 </tspan>
<tspan x="10" y="3482">  │ │   │ │ │ ├── extsprintf@1.0.2 </tspan>
<tspan x="10" y="3498">  │ │   │ │ │ ├── json-schema@0.2.3 </tspan>
<tspan x="10" y="3514">  │ │   │ │ │ └── verror@1.3.6 </tspan>
<tspan x="10" y="3530">  │ │   │ │ └─┬ sshpk@1.11.0 </tspan>
<tspan x="10" y="3546">  │ │   │ │   ├── asn1@0.2.3 </tspan>
<tspan x="10" y="3562">  │ │   │ │   ├── assert-plus@1.0.0 </tspan>
<tspan x="10" y="3578">  │ │   │ │   ├── bcrypt-pbkdf@1.0.1 </tspan>
<tspan x="10" y="3594">  │ │   │ │   ├─┬ dashdash@1.14.1 </tspan>
<tspan x="10" y="3610">  │ │   │ │   │ └── assert-plus@1.0.0 </tspan>
<tspan x="10" y="3626">  │ │   │ │   ├── ecc-jsbn@0.1.1 </tspan>
<tspan x="10" y="3642">  │ │   │ │   ├─┬ getpass@0.1.6 </tspan>
<tspan x="10" y="3658">  │ │   │ │   │ └── assert-plus@1.0.0 </tspan>
<tspan x="10" y="3674">  │ │   │ │   ├── jodid25519@1.0.2 </tspan>
<tspan x="10" y="3690">  │ │   │ │   ├── jsbn@0.1.1 </tspan>
<tspan x="10" y="3706">  │ │   │ │   └── tweetnacl@0.14.5 </tspan>
<tspan x="10" y="3722">  │ │   │ ├── is-typedarray@1.0.0 </tspan>
<tspan x="10" y="3738">  │ │   │ ├── isstream@0.1.2 </tspan>
<tspan x="10" y="3754">  │ │   │ ├── json-stringify-safe@5.0.1 </tspan>
<tspan x="10" y="3770">  │ │   │ ├─┬ mime-types@2.1.15 </tspan>
<tspan x="10" y="3786">  │ │   │ │ └── mime-db@1.27.0 </tspan>
<tspan x="10" y="3802">  │ │   │ ├── oauth-sign@0.8.2 </tspan>
<tspan x="10" y="3818">  │ │   │ ├── performance-now@0.2.0 </tspan>
<tspan x="10" y="3834">  │ │   │ ├── qs@6.4.0 </tspan>
<tspan x="10" y="3850">  │ │   │ ├── safe-buffer@5.0.1 </tspan>
<tspan x="10" y="3866">  │ │   │ ├── stringstream@0.0.5 </tspan>
<tspan x="10" y="3882">  │ │   │ ├─┬ tough-cookie@2.3.2 </tspan>
<tspan x="10" y="3898">  │ │   │ │ └── punycode@1.4.1 </tspan>
<tspan x="10" y="3914">  │ │   │ ├── tunnel-agent@0.6.0 </tspan>
<tspan x="10" y="3930">  │ │   │ └── uuid@3.0.1 </tspan>
<tspan x="10" y="3946">  │ │   └── xtend@4.0.1 </tspan>
<tspan x="10" y="3962">  │ ├── mjml-validator@3.3.0 </tspan>
<tspan x="10" y="3978">  │ ├── react-dom@15.4.2 </tspan>
<tspan x="10" y="3994">  │ └── warning@3.0.0 </tspan>
<tspan x="10" y="4010">  ├── mjml-divider@3.3.0 </tspan>
<tspan x="10" y="4026">  ├── mjml-group@3.3.0 </tspan>
<tspan x="10" y="4042">  ├── mjml-head-attributes@3.3.0 </tspan>
<tspan x="10" y="4058">  ├── mjml-head-font@3.3.0 </tspan>
<tspan x="10" y="4074">  ├── mjml-head-style@3.3.0 </tspan>
<tspan x="10" y="4090">  ├── mjml-head-title@3.3.0 </tspan>
<tspan x="10" y="4106">  ├── mjml-hero@3.3.0 </tspan>
<tspan x="10" y="4122">  ├── mjml-html@3.3.0 </tspan>
<tspan x="10" y="4138">  ├── mjml-image@3.3.0 </tspan>
<tspan x="10" y="4154">  ├─┬ mjml-invoice@3.3.0 </tspan>
<tspan x="10" y="4170">  │ └── numeral@2.0.6 </tspan>
<tspan x="10" y="4186">  ├── mjml-list@3.3.0 </tspan>
<tspan x="10" y="4202">  ├── mjml-location@3.3.0 </tspan>
<tspan x="10" y="4218">  ├── mjml-navbar@3.3.0 </tspan>
<tspan x="10" y="4234">  ├── mjml-raw@3.3.0 </tspan>
<tspan x="10" y="4250">  ├── mjml-section@3.3.0 </tspan>
<tspan x="10" y="4266">  ├── mjml-social@3.3.0 </tspan>
<tspan x="10" y="4282">  ├── mjml-spacer@3.3.0 </tspan>
<tspan x="10" y="4298">  ├── mjml-table@3.3.0 </tspan>
<tspan x="10" y="4314">  ├── mjml-text@3.3.0 </tspan>
<tspan x="10" y="4330">  └── mjml-wrapper@3.3.0</tspan>
</text>
</svg>
